<svg width="156" height="192" viewBox="0 0 156 192" fill="none" xmlns="http://www.w3.org/2000/svg">
<path d="M81.9783 0.242321C81.8696 0.405544 82.9928 5.20427 84.442 10.9497C85.9275 16.6951 88.8986 28.4144 91.0725 36.9999L95.058 52.6039L94.1884 54.0076C93.4638 55.1828 93.3913 55.5419 93.7174 56.5865C93.9348 57.272 94.5145 58.3819 95.0218 59.0348L95.9275 60.2427L95.6739 67.555C95.4565 73.9859 95.3478 75.1285 94.6232 76.9239C93.7899 78.9479 91.2536 82.5061 89.6957 83.7466L88.8986 84.3995L88.0652 83.5181C87.3044 82.7346 87.2319 82.3755 87.3044 79.7313C87.4131 76.7933 87.4131 76.7933 88.7174 75.6508C89.4783 75.0306 90.058 74.345 90.058 74.1165C90.058 72.6802 81.942 68.9261 78.7536 68.8934C77.3406 68.8934 76.942 69.024 76.3261 69.7422C75.2391 70.9826 75.3478 72.2231 76.6884 73.3983L77.8116 74.3777L76.7971 74.8347C75.3478 75.4549 75.2754 76.2384 76.6522 76.6628L77.7754 77.0219L77.1957 78.2297C76.5435 79.6987 76.5073 79.666 77.2319 79.666C77.6667 79.666 77.7754 79.9925 77.6667 81.3636L77.558 83.0937L79.116 83.4201C80.4928 83.6813 80.6739 83.8119 80.5652 84.5627C80.4928 85.1829 80.1304 85.4767 79.1884 85.7379C78.5 85.9338 77.8841 86.3581 77.8116 86.6519C77.7029 87.0763 77.2319 87.1742 75.529 87.1742C73.7174 87.1742 73.2464 87.3048 72.3406 88.0556C71.7971 88.578 71.0362 89.6552 70.7102 90.4713C70.3841 91.2874 69.6232 92.3647 69.0435 92.887C67.9203 93.8663 67.5942 93.5399 68.4638 92.2994C68.7174 91.9077 69.0797 90.4387 69.1884 89.0023C69.3696 87.3048 69.6594 86.1623 70.1305 85.5747C70.7464 84.7912 70.7826 84.53 70.3478 82.1144C70.058 80.5474 69.9855 79.2743 70.1667 78.9479C70.6739 78.0991 70.5652 77.283 69.7319 75.6181C69.2609 74.6388 69.0797 73.7574 69.2247 73.1698C69.4058 72.3864 69.1884 72.1252 67.2319 70.7215C65.8913 69.7422 65.0942 68.9587 65.1304 68.6323C65.2029 68.2079 63.8623 67.4571 59.8406 65.6616L54.4783 63.2786L54.7319 61.1893C55.0218 58.7084 54.7681 58.6104 52.6305 60.2427C51.8334 60.8629 51.0363 61.3852 50.8913 61.3852C50.7464 61.3852 50.529 60.7976 50.3841 60.0794L50.1305 58.7736L48.3189 60.1774C47.3044 60.9282 45.7826 62.4625 44.8768 63.5724C44.0073 64.6823 42.7392 65.8901 42.0507 66.2819C41.145 66.7715 40.6015 67.4571 40.0942 68.7628C38.8623 71.7008 37.6667 73.5616 35.9276 75.3243C33.8623 77.3809 32.4493 80.0251 32.4493 81.8532C32.4493 83.1264 32.5942 83.3222 33.9348 84.1383C34.7681 84.6606 35.6377 85.1829 35.8913 85.3462C36.1812 85.542 37.4855 85.1503 39.5507 84.3015C42.087 83.2569 43.0652 82.9958 44.0435 83.1263C45.7102 83.3875 48.8986 81.9512 49.8406 80.5474C50.4203 79.7313 50.5652 79.6334 50.7826 80.0904C51.1087 80.9065 49.7681 83.0937 47.087 86.1296C43.2464 90.4387 38.2464 93.7684 35.4203 93.8337L34.0797 93.8663L31.7247 89.7532C28.8623 84.7586 27.9928 83.5507 27.0145 82.9958C26.5797 82.7673 24.7319 82.2123 22.9203 81.7879C21.0725 81.3636 18.1377 80.6454 16.3261 80.1557C13.3551 79.3396 12.7392 79.2743 9.07974 79.4702C4.87684 79.666 1.03626 80.1884 0.202929 80.6454C-0.521709 81.0371 0.710175 82.1797 3.64496 83.9098C6.14496 85.3788 6.54351 85.4115 9.51452 84.7259C11.5435 84.2363 11.7971 84.2689 15.6015 85.085C20.8913 86.1949 24.4058 87.4028 24.9855 88.2842C25.4928 89.0023 27.8116 99.9708 28.4638 104.639C28.645 106.075 29.0797 108.23 29.4421 109.438C29.7681 110.646 29.9493 111.723 29.8406 111.853C29.6957 111.951 26.4348 112.767 22.5942 113.616C14.9855 115.346 14.6594 115.51 13.971 117.925C13.4276 119.623 13.7537 120.7 15.3479 122.985C16.9058 125.172 17.7029 126.772 18.5 129.285C19.1522 131.407 19.7319 132.126 22.0145 133.497C22.9565 134.052 24.3334 135.194 25.058 136.01C26.616 137.708 29.1884 139.177 30.058 138.883C30.8189 138.622 30.8551 135.912 30.0942 134.28C29.2247 132.452 28.5363 131.897 27.0145 131.897C25.529 131.897 24.6594 131.277 24.2609 129.808C24.116 129.318 23.1739 128.012 22.1232 126.968C20.6739 125.499 20.058 124.519 19.4058 122.724C18.6087 120.406 18.6087 120.341 19.2609 119.917C19.8044 119.557 20.6377 119.492 23.029 119.688C26.6884 119.982 30.7826 119.982 32.9928 119.688L34.587 119.46L41.5797 125.629C45.4203 129.024 49.4783 132.321 50.5652 132.942C51.6522 133.562 54.8406 135.129 57.6305 136.402C60.4203 137.708 63.8986 139.601 65.3478 140.613L67.9928 142.506L67.7029 143.975C67.3406 146.261 67.4493 150.504 67.9203 152.137C68.1739 152.953 69.9493 156.152 71.8334 159.286C76.2536 166.565 76.471 166.99 75.9275 168.132C75.2391 169.601 68.2464 174.792 64.442 176.652C63.4638 177.109 63.2826 177.566 62.0145 181.908C60.8913 185.825 60.6739 186.968 60.8913 188.339C61.1812 190.167 61.5073 190.33 63.2464 189.514C64.442 188.959 65.8913 187.36 66.471 185.989C66.7971 185.271 66.7609 184.846 66.3261 184.128C65.5652 182.822 65.6377 182.659 67.0145 181.908C67.7754 181.516 68.5362 180.7 68.9348 179.917C69.7681 178.187 73.4276 175.608 78.3913 173.159C82.087 171.331 83.6812 170.221 85.2754 168.361L86.0362 167.414L87.2319 168.165C90.2391 170.026 92.2319 171.788 92.558 172.898C92.9928 174.367 92.4855 177.371 91.3261 179.917C89.4783 184.03 86.9058 187.001 83.971 188.437C82.7754 189.025 81.5435 190.755 81.8696 191.506C82.1594 192.191 89.442 192.158 90.2029 191.44C90.529 191.179 90.7826 190.918 90.7826 190.885C90.7826 190.82 92.2319 187.164 94.0073 182.692L97.2319 174.596L100.42 174.531C104.261 174.465 106.036 173.845 108.826 171.593C109.877 170.776 110.891 170.091 111.072 170.091C111.254 170.091 111.435 170.483 111.507 171.005L111.616 171.886L112.703 170.809C115.601 167.936 117.703 163.823 118.428 159.547C118.826 157.229 118.971 156.87 119.551 156.968C120.167 157.066 120.203 156.935 120.022 155.466C119.696 153.018 116.942 148.35 114.37 145.869C111.471 143.061 109.768 142.245 104.297 141.037C102.92 140.711 102.739 140.58 102.558 139.471C101.761 135.292 99.116 132.354 91.1449 126.804L86.1087 123.312L87.4855 121.81C89.2971 119.851 89.9493 118.643 90.7464 115.803C91.2899 113.877 91.5797 113.42 92.2681 113.29C93.2464 113.061 93.4638 112.506 94.0435 108.328C94.442 105.488 94.442 105.063 93.8986 104.313C93.5725 103.856 93.1377 103.496 92.8841 103.496C91.8696 103.496 94.2609 94.2581 96.3261 90.1449C97.1957 88.4147 98.7174 85.1176 99.6594 82.7999C101 79.5681 101.507 78.7194 101.725 79.209C101.87 79.5355 102.92 83.4201 104.007 87.7945C105.094 92.1688 106.072 95.8576 106.181 95.9882C106.507 96.4779 107.848 95.9229 107.667 95.368C107.014 93.4093 99.4783 63.2133 99.4783 62.5604C99.4783 62.1034 99.8044 60.8303 100.239 59.7203C101.109 57.4352 100.928 56.2274 99.3696 53.9423C98.6812 52.9956 98.1377 52.5712 97.558 52.5712C96.7609 52.5712 96.6159 52.1468 94.6232 44.2143C93.4638 39.6441 92.5942 35.8247 92.6667 35.7267C93.029 35.4329 99.9493 33.964 101.435 33.8987L102.92 33.8007L102.812 36.4123C102.63 39.9379 103.029 40.3949 106.725 40.8193C108.21 40.9825 110.384 41.1457 111.543 41.1457H113.609V45.3242C113.609 49.2415 113.645 49.568 114.442 50.1882C116.761 52.1469 120.855 52.7344 130.457 52.4407C136.652 52.2774 138.464 52.3427 140.167 52.7344C143.283 53.4526 145.783 54.7257 147.884 56.6844L149.804 58.4472L150.565 57.5658C153.572 54.1055 156 46.1403 156 39.6441C156 35.7594 155.71 34.8127 153.79 32.8867C150.928 29.9813 146.761 28.3491 138.609 26.9454C135.203 26.3578 131 25.2153 131 24.8888C131 24.7582 131.326 23.8768 131.761 22.8975C133.428 18.9475 132.123 18.0009 123.935 17.1521C119.007 16.6298 114.841 15.8463 114.514 15.3567C114.406 15.2261 114.659 14.2468 115.058 13.2348C116.399 9.77449 116.036 9.18689 111.435 7.16293C105.167 4.38816 94.587 1.90719 87.087 1.41752C84.2971 1.2543 83.7899 1.12371 83.6087 0.601406C83.4638 0.0138054 82.3044 -0.214695 81.9783 0.242321ZM72.087 103.562C72.7391 105.814 72.0507 107.61 70.6015 107.348C70.058 107.251 67.9928 104.443 67.9565 103.758C67.9565 103.562 70.2754 102.974 71.4348 102.876C71.6884 102.844 71.942 103.17 72.087 103.562ZM103.862 148.382C104.116 149.199 104.225 151.81 104.116 155.401C103.935 161.505 103.681 162.485 101.797 164.705C100.891 165.782 101.072 166.369 102.015 165.357C102.957 164.346 104.551 165.129 104.551 166.631C104.551 167.479 102.703 169.079 101.29 169.471C99.4058 169.993 98.3188 169.569 95.7102 167.251C93.5362 165.292 92.1232 162.974 91.7246 160.755C91.471 159.449 91.5435 159.351 93.9348 156.837C97.4131 153.214 99.6957 149.884 101.362 145.934L101.725 145.118L102.594 146.097C103.065 146.62 103.645 147.664 103.862 148.382Z" fill="#506602"/>
</svg>
