<svg width="172" height="208" viewBox="0 0 172 208" fill="none" xmlns="http://www.w3.org/2000/svg">
<path d="M164 47.6444C164 54.1404 161.573 62.1049 158.566 65.5653L157.805 66.4472L155.884 64.6845C153.783 62.7259 151.283 61.4525 148.167 60.7343L147.845 60.6649C146.437 60.3795 144.78 60.3056 140.583 60.3905L138.456 60.4403C128.856 60.7341 124.761 60.1468 122.442 58.1884C121.645 57.5681 121.609 57.2414 121.609 53.3241V49.1454H119.544L119.065 49.1386C117.851 49.1051 116.025 48.9621 114.725 48.8192C111.029 48.3949 110.63 47.9376 110.812 44.412L110.92 41.8007L109.435 41.8983C107.949 41.9637 101.033 43.4321 100.667 43.7265C100.595 43.8244 101.464 47.6437 102.623 52.2138C104.616 60.1451 104.761 60.5711 105.558 60.5712C106.137 60.5712 106.681 60.9957 107.369 61.9423C108.927 64.2274 109.109 65.4355 108.239 67.7206C107.805 68.8304 107.479 70.1035 107.479 70.5604C107.48 71.1763 114.101 97.749 115.467 102.683L115.667 103.368C115.848 103.923 114.508 104.477 114.182 103.988C114.073 103.858 113.094 100.169 112.007 95.7948C110.92 91.4205 109.87 87.5353 109.725 87.2089C109.507 86.7193 109 87.568 107.659 90.7997C106.835 92.8277 105.567 95.6058 104.681 97.4276L104.326 98.1444C102.294 102.193 99.9449 111.207 100.839 111.489L100.884 111.496C101.138 111.496 101.572 111.855 101.899 112.312C102.442 113.063 102.443 113.488 102.044 116.328C101.501 120.244 101.275 120.977 100.443 121.242L100.269 121.29C99.5803 121.421 99.2897 121.878 98.7462 123.804C97.9492 126.643 97.2969 127.851 95.4855 129.809L94.1085 131.311L99.1446 134.805C107.116 140.354 109.761 143.292 110.558 147.471C110.739 148.58 110.92 148.711 112.297 149.037C117.768 150.245 119.471 151.062 122.369 153.869C124.861 156.273 127.524 160.728 127.984 163.23L128.022 163.466C128.203 164.935 128.167 165.066 127.551 164.968C127.044 164.882 126.869 165.146 126.567 166.766L126.428 167.547C125.703 171.823 123.602 175.937 120.703 178.809L119.616 179.887L119.507 179.005C119.434 178.483 119.254 178.091 119.072 178.091C118.891 178.091 117.877 178.777 116.826 179.593C114.036 181.845 112.261 182.465 108.42 182.53L105.232 182.596L102.007 190.691C100.232 195.164 98.7823 198.82 98.7823 198.886C98.7804 198.92 98.528 199.18 98.2032 199.44C97.4424 200.158 90.1594 200.191 89.8692 199.506C89.5432 198.755 90.7753 197.025 91.9708 196.437C94.9056 195.001 97.4785 192.03 99.3263 187.917C100.486 185.371 100.993 182.367 100.558 180.898C100.232 179.788 98.2388 178.026 95.2316 176.165L94.0362 175.414L93.2755 176.36C91.6813 178.221 90.0871 179.331 86.3917 181.159C81.4279 183.607 77.768 186.187 76.9347 187.917C76.5361 188.7 75.7755 189.516 75.0148 189.908C73.6379 190.659 73.5654 190.822 74.3263 192.128C74.761 192.846 74.7968 193.27 74.4708 193.988C73.8911 195.359 72.4418 196.96 71.2462 197.515C69.5074 198.33 69.1815 198.167 68.8917 196.339C68.6744 194.968 68.8916 193.825 70.0148 189.908C71.2829 185.566 71.4642 185.109 72.4425 184.652C76.2469 182.791 83.2395 177.601 83.9278 176.132C84.4711 174.989 84.2529 174.564 79.8331 167.285C77.9492 164.151 76.1737 160.953 75.92 160.137C75.449 158.504 75.3409 154.261 75.7032 151.975L75.9933 150.507L73.3478 148.613C71.8986 147.601 68.4207 145.708 65.631 144.402L64.5704 143.913C62.0764 142.752 59.5166 141.484 58.5655 140.941C57.4786 140.321 53.4208 137.024 49.5802 133.629L42.587 127.46L40.9933 127.688C38.7832 127.982 34.6887 127.982 31.0294 127.688C28.6381 127.492 27.8043 127.558 27.2608 127.917C26.609 128.341 26.6094 128.406 27.4064 130.724C28.0585 132.519 28.6739 133.499 30.1232 134.968C31.1737 136.012 32.1157 137.318 32.2608 137.808C32.6594 139.276 33.5292 139.897 35.0148 139.897C36.5364 139.897 37.2243 140.452 38.0939 142.28C38.8547 143.912 38.8186 146.622 38.0577 146.883C37.1879 147.176 34.6155 145.707 33.0577 144.01C32.3331 143.194 30.9566 142.052 30.0148 141.497C27.7321 140.126 27.1523 139.407 26.5001 137.285C25.703 134.772 24.9056 133.172 23.3478 130.985C21.7536 128.7 21.4273 127.622 21.9708 125.925C22.6591 123.509 22.9859 123.346 30.5939 121.616C34.4344 120.767 37.696 119.951 37.8409 119.853C37.9496 119.723 37.7686 118.645 37.4425 117.437L37.3038 116.943C36.9754 115.702 36.6225 113.895 36.464 112.639C35.8117 107.97 33.4927 97.0022 32.9855 96.2841C32.4056 95.4027 28.8913 94.1947 23.6017 93.0848C19.7974 92.2688 19.5436 92.2359 17.5148 92.7255C14.5437 93.411 14.1446 93.379 11.6446 91.91C8.70998 90.1799 7.47861 89.0371 8.20323 88.6454C9.03677 88.1884 12.8775 87.6655 17.0802 87.4696C20.7393 87.2738 21.3554 87.3391 24.3263 88.1552C26.1378 88.6448 29.0722 89.3636 30.92 89.788C32.7316 90.2123 34.58 90.7675 35.0148 90.996C35.9929 91.551 36.8627 92.7588 39.7247 97.7528L42.0802 101.866L43.42 101.834C46.2461 101.769 51.2465 98.4387 55.087 94.1298C57.768 91.0941 59.1081 88.907 58.7823 88.0907C58.5922 87.6909 58.458 87.7155 58.0392 88.2743L57.8409 88.5477C56.8988 89.9513 53.7108 91.3867 52.0441 91.1259C51.0658 90.9953 50.0871 91.257 47.5509 92.3016C45.4857 93.1504 44.1816 93.5415 43.8917 93.3456C43.6381 93.1824 42.768 92.6609 41.9347 92.1386C40.5942 91.3225 40.4493 91.1263 40.4493 89.8534C40.4493 88.0253 41.8626 85.3807 43.9278 83.3241C45.6669 81.5614 46.862 79.7005 48.0939 76.7626C48.6011 75.4569 49.1452 74.7718 50.0509 74.2821C50.7393 73.8904 52.0075 72.6821 52.8771 71.5722C53.7829 70.4623 55.305 68.9284 56.3194 68.1776L58.131 66.7733L58.3839 68.079C58.5288 68.7972 58.7468 69.3847 58.8917 69.3847C59.0374 69.384 59.8344 68.8619 60.631 68.2421L61.0099 67.9569C62.7979 66.632 63.0033 66.8635 62.7316 69.1893L62.4786 71.2782L67.8409 73.662C71.8609 75.4566 73.2023 76.2073 73.131 76.6317C73.0947 76.9582 73.8911 77.7423 75.2316 78.7216C77.0655 80.0373 77.3721 80.3491 77.254 81.0282L77.2013 81.2831C77.1034 81.8676 77.29 82.6999 77.7316 83.618C78.5649 85.2829 78.6743 86.0994 78.1671 86.9481C77.9861 87.2748 78.058 88.5475 78.3478 90.1141C78.7825 92.5293 78.7465 92.791 78.131 93.5741C77.66 94.1617 77.3697 95.3045 77.1886 97.0018C77.0867 98.3485 76.762 99.7244 76.5128 100.214L76.464 100.3C75.5946 101.54 75.9209 101.866 77.0441 100.887C77.6236 100.364 78.384 99.2874 78.7101 98.4716C79.0362 97.6555 79.7974 96.5779 80.3409 96.0555C81.2466 95.3048 81.7179 95.1737 83.5294 95.1737C85.2315 95.1737 85.7028 95.0762 85.8116 94.6522C85.8841 94.3584 86.5002 93.934 87.1886 93.7382L87.5148 93.6376C88.2164 93.3979 88.5021 93.1052 88.5655 92.5624C88.6742 91.8118 88.4928 91.6809 87.1163 91.4198L85.5577 91.0936L85.6671 89.3632C85.7758 87.9924 85.6663 87.6659 85.2316 87.6659C84.5074 87.6659 84.5434 87.6981 85.1954 86.2294L85.7755 85.0214L84.6525 84.663C83.2757 84.2386 83.348 83.4551 84.797 82.8348L85.8116 82.3778L84.6886 81.3983C83.348 80.2231 83.2393 78.9826 84.3263 77.7421C84.8652 77.1138 85.2376 76.9351 86.2687 76.9003L86.754 76.8934C89.9424 76.9263 98.0566 80.6796 98.0577 82.1161C98.0577 82.3446 97.4785 83.0301 96.7179 83.6503C95.4135 84.7928 95.4135 84.7933 95.3048 87.7313C95.2323 90.3754 95.3047 90.735 96.0655 91.5184L96.8985 92.3993L97.6954 91.747C99.2534 90.5065 101.79 86.9477 102.623 84.9237C103.348 83.1283 103.457 81.9855 103.674 75.5546L103.928 68.2421L103.022 67.035C102.514 66.3823 101.935 65.2724 101.718 64.5868C101.392 63.5422 101.464 63.1828 102.189 62.0077L103.058 60.6034L99.0724 44.9999C96.8985 36.4144 93.928 24.6945 92.4425 18.9491C90.9933 13.2039 89.8699 8.4053 89.9786 8.24208C90.3049 7.78534 91.4636 8.01395 91.6085 8.60146C91.7897 9.12373 92.2973 9.25464 95.087 9.41786C102.587 9.90752 113.167 12.3882 119.435 15.163C123.748 17.0603 124.337 17.6953 123.289 20.6181L123.058 21.2343C122.684 22.1827 122.438 23.1029 122.498 23.3222L122.515 23.3563C122.841 23.846 127.007 24.6299 131.935 25.1522C139.867 25.9745 141.339 26.8884 139.908 30.536L139.761 30.8974C139.326 31.8763 139 32.7575 139 32.8886C139 33.215 143.203 34.3576 146.609 34.9452C154.761 36.3489 158.928 37.9813 161.79 40.8866C163.59 42.6922 163.957 43.6372 163.996 46.9491L164 47.6444ZM113.69 57.036C113.621 56.9436 113.543 56.8381 113.454 56.7235C113.528 56.7325 113.6 56.7416 113.671 56.7499C113.677 56.8459 113.682 56.9414 113.69 57.036ZM76.4884 112.893L79.5567 111.758H80.1368C80.1201 111.693 80.106 111.627 80.087 111.561C80.0843 111.554 80.0801 111.547 80.0773 111.54L75.9562 111.758H79.2491L79.2394 111.808L76.34 112.647C76.3865 112.727 76.4359 112.809 76.4884 112.893ZM79.2491 111.758H79.4093L79.2394 111.808L79.2491 111.758ZM103.71 175.251C106.319 177.569 107.406 177.993 109.29 177.471C110.703 177.079 112.551 175.48 112.551 174.631C112.551 173.129 110.957 172.345 110.015 173.357C109.073 174.369 108.892 173.782 109.797 172.705C111.681 170.485 111.935 169.505 112.116 163.401C112.225 159.811 112.116 157.199 111.862 156.383C111.645 155.665 111.065 154.62 110.594 154.098L109.725 153.118L109.362 153.934C107.8 157.637 105.696 160.795 102.573 164.161L101.935 164.837C99.5434 167.35 99.4711 167.449 99.7247 168.755C100.123 170.975 101.536 173.292 103.71 175.251ZM128.687 157.052C128.755 157.061 128.797 157.066 128.807 157.067L128.806 157.069C128.768 157.063 128.729 157.058 128.687 157.052ZM91.047 196.849C91.0641 196.784 91.0821 196.722 91.0987 196.665C91.0833 196.719 91.0649 196.78 91.047 196.849ZM90.9884 197.086C90.9965 197.051 91.0046 197.016 91.0128 196.982C91.0053 197.013 90.9972 197.048 90.9884 197.086ZM106.782 198.886C106.782 199.012 106.779 199.133 106.774 199.248C106.779 199.129 106.782 199.009 106.782 198.886ZM106.77 199.305C106.766 199.377 106.76 199.447 106.755 199.515C106.761 199.445 106.766 199.375 106.77 199.305ZM106.7 200.012C106.677 200.178 106.657 200.296 106.648 200.348C106.605 200.578 106.56 200.758 106.536 200.853C106.531 200.873 106.525 200.891 106.521 200.909C106.591 200.636 106.654 200.336 106.7 200.012ZM95.8194 71.2118C94.6598 70.7172 93.4436 70.2592 92.2579 69.8876C90.8501 69.4464 88.8371 68.914 86.836 68.8934H86.754C86.0941 68.8934 84.3925 68.8754 82.6212 69.4892C81.1825 69.9878 80.1055 70.7368 79.3224 71.4364C78.8929 70.8915 78.482 70.4986 78.2081 70.2558C77.3699 69.5125 76.4741 68.9861 75.9366 68.6845C74.7482 68.0174 73.0951 67.2463 71.1017 66.3563L71.09 66.3505L70.6837 66.1708C70.5967 65.6721 70.4545 65.0848 70.212 64.4628C69.6691 63.0705 68.4109 61.0028 65.8351 59.8602C65.5074 59.7149 65.1837 59.5985 64.8673 59.5028L63.505 52.4882L51.4191 61.8534C49.7421 63.1253 47.8246 65.1106 46.6788 66.5145L46.629 66.5761L46.5792 66.6386C46.5046 66.7338 46.3968 66.8621 46.2618 67.0097C46.1283 67.1556 45.991 67.2956 45.8653 67.4159C45.8088 67.47 45.7588 67.5117 45.7208 67.5458C43.0616 69.1558 41.6203 71.4215 40.7169 73.6688L40.379 74.4433C39.6137 76.1197 38.9952 76.9329 38.2325 77.7059C36.8065 79.1351 35.56 80.7681 34.5978 82.4686C34.0023 82.3074 33.3724 82.1458 32.7452 81.9989L32.7276 81.995L32.711 81.9911C30.9285 81.5817 28.0975 80.8878 26.4132 80.4325L26.4122 80.4335C24.9418 80.0298 23.455 79.6351 21.7218 79.4696C20.077 79.3125 18.4524 79.3862 16.7071 79.4794C14.4104 79.5864 12.1682 79.7834 10.3194 80.0302C9.40314 80.1525 8.49192 80.2985 7.67491 80.4735C7.1764 80.5803 5.7405 80.884 4.39952 81.6093L4.39854 81.6073C3.19234 82.2594 1.55819 83.5332 0.633895 85.7597C-0.299461 88.0081 -0.0417214 90.1007 0.389754 91.4745C1.10396 93.7482 2.61581 95.1744 3.06358 95.5966C4.34064 96.8006 6.04329 97.8944 7.58214 98.8016L7.5919 98.8075C8.64715 99.4276 10.7104 100.699 13.3302 101.054C15.2029 101.307 16.9809 101.031 18.2413 100.765L19.3136 100.521L19.3526 100.512L19.3917 100.503C19.4931 100.478 19.5775 100.46 19.6466 100.444C19.707 100.455 19.7791 100.465 19.8634 100.48C20.3278 100.567 20.9461 100.697 21.9239 100.907L21.9415 100.911L21.9591 100.914C23.7018 101.28 25.1395 101.64 26.254 101.962C26.4383 102.765 26.6396 103.673 26.8448 104.641C27.5584 108.004 28.2545 111.695 28.5411 113.746C28.5467 113.789 28.5528 113.832 28.5587 113.876C26.8004 114.276 25.2927 114.625 24.0724 114.95C22.8659 115.272 21.4342 115.696 20.1114 116.357C18.561 117.132 16.9979 118.306 15.8146 120.141C14.8649 121.615 14.4473 123.134 14.2892 123.692C13.7154 125.578 13.4446 127.834 14.1495 130.374C14.7509 132.541 15.9248 134.326 16.7872 135.562L16.8321 135.627C17.91 137.14 18.3308 137.991 18.8741 139.704C19.3048 141.095 19.9918 142.978 21.4923 144.784C22.9159 146.498 24.6239 147.591 25.8956 148.354L25.9542 148.39C25.9114 148.364 25.9564 148.388 26.089 148.484C26.2112 148.573 26.3596 148.689 26.5187 148.82C26.6773 148.951 26.8207 149.078 26.9347 149.184C27.0567 149.299 27.0984 149.347 27.0763 149.322L27.1192 149.371L27.1642 149.42C28.5631 150.944 30.2647 152.232 31.837 153.134C32.6262 153.586 33.6143 154.075 34.712 154.423C35.3684 154.631 37.687 155.354 40.3595 154.545L40.6192 154.462L40.6368 154.456L40.6554 154.449C44.7389 153.047 45.9091 149.371 46.13 148.662C46.5398 147.346 46.6375 146.09 46.6466 145.175C46.6579 144.032 46.532 142.672 46.1808 141.278C47.5458 142.454 48.8795 143.575 50.0567 144.532C51.5189 145.721 53.3623 147.183 54.6007 147.89L55.2267 148.234C56.8706 149.113 59.7976 150.531 62.2394 151.647C64.1072 152.522 66.1473 153.611 67.4991 154.393C67.4812 155.126 67.4846 155.845 67.5021 156.511C67.5449 158.139 67.6955 160.487 68.2345 162.354L68.2569 162.433L68.2804 162.511C68.5624 163.418 69.0089 164.315 69.2169 164.731C69.5129 165.324 69.8721 165.999 70.255 166.695C71.0256 168.097 71.9933 169.771 72.9767 171.407L72.9864 171.423L72.9952 171.437C73.5679 172.381 74.0589 173.193 74.4825 173.896C72.3632 175.462 70.1676 176.859 68.9269 177.466C68.2804 177.776 67.2093 178.358 66.1622 179.408C65.0792 180.495 64.4476 181.65 64.0597 182.5C63.4321 183.874 62.8871 185.775 62.3351 187.665L62.3302 187.684L62.3243 187.703C61.3107 191.238 60.4453 194.154 60.9903 197.592L61.0714 198.072C61.1741 198.637 61.3486 199.433 61.6573 200.247C62.071 201.337 63.1859 203.695 65.9523 205.076C68.6423 206.419 71.1308 205.945 72.1515 205.686C73.2238 205.415 74.1581 204.985 74.6446 204.757L74.6437 204.756C76.5438 203.867 78.0266 202.517 79.0011 201.448C80.0274 200.323 81.1108 198.829 81.84 197.104H81.838C82.1742 196.33 82.5873 195.155 82.671 193.693C83.0841 193.175 83.448 192.641 83.7579 192.105C83.9472 191.935 84.2678 191.671 84.754 191.325C85.8406 190.552 87.3938 189.62 89.3302 188.637C88.9825 188.945 88.6814 189.141 88.4542 189.252L88.4425 189.257C86.3099 190.305 84.7427 191.959 83.7794 193.346C83.2636 194.088 82.6688 195.113 82.2706 196.361C81.9473 197.375 81.3299 199.854 82.5021 202.62L82.5011 202.621C83.608 205.239 85.6782 206.384 86.2218 206.676C87.0254 207.107 87.7499 207.329 88.1427 207.438C88.9699 207.668 89.7647 207.776 90.2989 207.836C91.45 207.964 92.747 208.006 93.9103 207.999C95.0835 207.992 96.3839 207.932 97.5548 207.795C98.1222 207.728 98.8454 207.622 99.5831 207.437C99.9506 207.345 100.475 207.197 101.055 206.956C101.456 206.79 102.301 206.409 103.202 205.683L103.204 205.684C103.22 205.672 103.235 205.659 103.25 205.646C103.283 205.619 103.317 205.592 103.351 205.563C103.666 205.304 103.959 205.042 104.213 204.793C104.349 204.66 104.552 204.454 104.771 204.203C104.865 204.095 105.08 203.844 105.317 203.508C105.427 203.35 105.659 203.011 105.896 202.551C105.932 202.48 106.15 202.082 106.361 201.448C106.391 201.371 106.434 201.257 106.495 201.099C106.65 200.7 106.88 200.114 107.171 199.376C107.751 197.906 108.552 195.886 109.439 193.652L110.724 190.427C111.416 190.371 112.116 190.29 112.822 190.166L113.671 197.042L126.334 184.491C130.18 180.679 132.903 175.537 134.067 170.159C134.978 169.112 135.464 168.016 135.725 167.179C136.221 165.582 136.114 164.161 136.098 163.877C136.068 163.363 136.005 162.835 135.962 162.487L135.957 162.448L135.952 162.41C135.57 159.539 134.111 156.621 132.931 154.618C131.63 152.41 129.877 150 127.935 148.123C126.175 146.419 124.317 144.867 121.758 143.64C120.321 142.95 118.806 142.438 117.21 142.001C115.081 137.035 110.933 133.382 105.293 129.352C105.622 128.576 105.894 127.803 106.133 127.034C106.159 127.011 106.186 126.99 106.212 126.967C107.739 125.6 108.463 124.022 108.829 123.008C109.425 121.358 109.718 119.225 109.966 117.439L110.097 116.495C110.23 115.489 110.355 114.326 110.32 113.275C110.297 112.559 110.201 111.724 109.947 110.82C111.541 111.841 113.195 112.119 114.19 112.167C115.805 112.245 117.189 111.871 118.186 111.457C119.162 111.051 120.485 110.307 121.622 108.984C122.77 107.65 124.501 104.653 123.272 100.886L123.265 100.863L123.257 100.841C123.274 100.892 123.159 100.502 122.861 99.3759C122.601 98.3915 122.259 97.072 121.862 95.5223C121.07 92.4266 120.07 88.4646 119.09 84.537C118.11 80.6089 117.152 76.7301 116.441 73.7997C116.134 72.5374 115.878 71.465 115.686 70.6464L115.689 70.6386L115.702 70.6015L115.716 70.5653C116.355 68.8861 117.036 66.5317 116.637 63.7313C116.896 63.9825 117.13 64.179 117.311 64.3251C120.06 66.6345 123.316 67.6161 126.6 68.08C129.818 68.5345 133.8 68.5855 138.666 68.4374C145.126 68.2672 145.852 68.4112 146.373 68.5311C148.294 68.9742 149.48 69.6512 150.43 70.536L150.452 70.5575L150.474 70.578L158.471 77.9179L164.604 70.8134L164.842 70.5331C167.281 67.6046 168.975 63.6604 170.066 60.0683C171.24 56.2007 172 51.7981 172 47.6444C172 45.8038 171.98 43.3878 171.225 41.0614C170.329 38.3022 168.717 36.5036 167.455 35.2382L167.454 35.2392C162.776 30.5116 156.517 28.5596 148.299 27.122C147.932 24.4048 146.495 22.0384 144.273 20.4091C142.304 18.966 140.064 18.3633 138.537 18.0331C136.849 17.668 134.881 17.4155 132.777 17.1972C132.38 17.1551 131.991 17.1082 131.611 17.0634C131.434 15.935 131.049 14.7387 130.339 13.5517C129.082 11.4522 127.309 10.252 126.23 9.60829C125.1 8.93463 123.806 8.34525 122.656 7.83974L122.655 7.84071C115.434 4.64771 103.932 1.97795 95.6085 1.43446L95.5812 1.43251L95.5548 1.43153H95.5528C94.5091 0.773087 93.4436 0.398697 92.5099 0.202042C91.4403 -0.0231934 90.1097 -0.107788 88.671 0.201065C87.2779 0.500153 85.0701 1.34724 83.4659 3.5956L83.3907 3.70107L83.3194 3.80751C82.5524 4.95934 82.2776 6.02641 82.1769 6.46571C82.0546 6.99895 82.0107 7.43835 81.9923 7.69228C81.9556 8.19846 81.9751 8.60387 81.9855 8.78407C82.0081 9.17862 82.0547 9.51216 82.0782 9.67274C82.132 10.0397 82.2052 10.4249 82.2696 10.747C82.4058 11.4267 82.6024 12.3123 82.8321 13.3056C83.1806 14.8119 83.6372 16.7024 84.1525 18.7772L84.6905 20.9296L84.6964 20.952C86.1757 26.6734 89.1415 38.37 91.3175 46.9638L91.3214 46.9794L94.4972 59.4149C94.1817 60.0977 93.868 60.9419 93.6925 61.8905C93.2557 64.2517 93.8289 66.1625 94.0812 66.9706L94.086 66.9872L94.0919 67.0048C94.4629 68.1747 95.1077 69.5154 95.838 70.6874L95.8194 71.2118ZM106.735 199.73C106.726 199.816 106.717 199.896 106.707 199.967C106.718 199.889 106.727 199.81 106.735 199.73Z" fill="white"/>
</svg>
