<svg width="46" height="31" viewBox="0 0 46 31" fill="none" xmlns="http://www.w3.org/2000/svg">
<path d="M45.7221 14.3214C41.3913 5.7794 32.8173 0 23 0C13.1827 0 4.60635 5.78344 0.277874 14.3222C0.0951844 14.6875 0 15.0911 0 15.5004C0 15.9097 0.0951844 16.3133 0.277874 16.6786C4.60875 25.2206 13.1827 31 23 31C32.8173 31 41.3936 25.2166 45.7221 16.6778C45.9048 16.3125 46 15.9089 46 15.4996C46 15.0903 45.9048 14.6867 45.7221 14.3214ZM23 27.125C20.7255 27.125 18.5021 26.4432 16.6109 25.1658C14.7198 23.8885 13.2458 22.0729 12.3754 19.9487C11.505 17.8245 11.2772 15.4871 11.7209 13.2321C12.1647 10.977 13.2599 8.90567 14.8683 7.27988C16.4766 5.6541 18.5257 4.54692 20.7565 4.09837C22.9872 3.64982 25.2995 3.88003 27.4009 4.7599C29.5022 5.63977 31.2983 7.12977 32.5619 9.0415C33.8256 10.9532 34.5 13.2008 34.5 15.5C34.5008 17.0268 34.2038 18.5388 33.6261 19.9496C33.0485 21.3603 32.2014 22.6421 31.1334 23.7218C30.0654 24.8014 28.7973 25.6577 27.4017 26.2416C26.0062 26.8256 24.5104 27.1257 23 27.125ZM23 7.75C22.3157 7.75967 21.6358 7.86258 20.9787 8.05596C21.5203 8.80002 21.7803 9.71566 21.7113 10.6368C21.6424 11.558 21.2492 12.4237 20.603 13.0769C19.9568 13.7301 19.1004 14.1276 18.1891 14.1973C17.2778 14.267 16.3721 14.0043 15.636 13.4567C15.2169 15.0177 15.2925 16.6722 15.8523 18.1875C16.4121 19.7027 17.4279 21.0023 18.7567 21.9034C20.0854 22.8045 21.6603 23.2617 23.2595 23.2106C24.8588 23.1595 26.4019 22.6028 27.6718 21.6187C28.9416 20.6346 29.8742 19.2728 30.3383 17.7249C30.8024 16.177 30.7746 14.5209 30.2588 12.9898C29.7431 11.4587 28.7653 10.1296 27.4632 9.18965C26.161 8.2497 24.6001 7.74619 23 7.75Z" fill="white"/>
</svg>
